<svg xmlns="http://www.w3.org/2000/svg" viewBox="0 0 624 468" width="624" height="468">
<rect width="624" height="468" fill="#000000"/>
<g transform="translate(0,468) scale(0.1,-0.1)" fill="#7f7f7f" stroke="none">
<path d="M3400 3910 c0 -5 -6 -10 -14 -10 -8 0 -18 -9 -21 -20 -5 -14 -15 -20
-37 -20 -23 0 -29 -4 -24 -15 10 -26 -5 -45 -35 -45 -16 0 -29 -4 -29 -10 0
-5 -14 -10 -30 -10 -17 0 -38 -4 -48 -9 -9 -5 -37 -14 -62 -21 -25 -6 -58 -15
-74 -20 -22 -7 -32 -6 -38 3 -6 9 -10 9 -20 -1 -6 -6 -21 -12 -32 -12 -30 -1
-56 -24 -56 -49 0 -23 -10 -27 -27 -10 -6 6 -17 8 -24 3 -7 -4 -33 -9 -58 -10
-26 -1 -49 -8 -55 -16 -6 -9 -25 -16 -41 -16 -45 -1 -95 -13 -95 -23 0 -5 -15
-9 -34 -9 -26 0 -35 -5 -41 -22 -6 -20 -8 -21 -12 -5 -5 19 -51 21 -64 4 -3
-4 -27 -3 -52 3 -45 10 -55 8 -96 -18 -3 -1 4 -9 15 -17 19 -15 18 -15 -5 -35
-29 -25 -21 -35 30 -35 22 0 38 -4 35 -10 -2 -5 -12 -9 -24 -8 -23 3 -37 -31
-18 -45 6 -5 37 -17 69 -27 43 -13 57 -22 55 -34 -2 -9 -12 -15 -23 -14 -71 9
-138 6 -131 -6 3 -4 -6 -19 -19 -31 -25 -23 -33 -50 -16 -50 5 0 15 -14 24
-32 15 -30 14 -32 -8 -50 -13 -10 -30 -18 -38 -18 -7 0 -22 -9 -32 -20 -10
-11 -26 -20 -37 -20 -30 0 -20 -19 18 -35 30 -12 34 -17 24 -30 -10 -12 -6
-15 30 -21 23 -4 44 -13 47 -20 3 -8 16 -14 29 -14 56 0 72 -64 35 -139 -21
-43 -171 -55 -171 -14 0 28 -34 8 -42 -25 -5 -17 -13 -32 -17 -32 -5 0 -17 -3
-25 -6 -12 -4 -15 -2 -10 9 4 11 -5 17 -38 22 -46 7 -100 49 -92 70 6 14 -40
48 -50 37 -4 -3 -23 -5 -42 -3 -31 2 -34 0 -34 -25 0 -15 -3 -24 -7 -21 -3 4
-12 2 -19 -4 -10 -8 -18 -4 -31 18 -15 24 -23 28 -56 25 -20 -2 -35 -7 -32
-13 4 -5 1 -9 -4 -9 -6 0 -11 5 -11 10 0 18 -18 11 -25 -10 -3 -11 -12 -20
-20 -20 -8 0 -16 -8 -19 -18 -11 -33 -62 -64 -76 -47 -7 8 -18 15 -25 15 -8 0
-22 10 -32 23 -38 48 -93 73 -93 42 0 -8 5 -15 10 -15 14 0 13 -67 -1 -76 -18
-11 -30 10 -21 36 10 26 -59 110 -91 110 -8 0 -19 10 -23 22 -12 38 -34 48
-97 43 l-58 -5 -15 35 c-13 31 -44 41 -44 14 0 -5 -10 -8 -22 -6 -16 1 -24 -4
-26 -19 -3 -21 -72 -33 -72 -13 0 5 5 9 10 9 22 0 8 20 -18 25 -15 4 -35 10
-44 16 -15 8 -18 5 -19 -18 0 -16 -3 -22 -6 -15 -8 20 -20 14 -27 -13 -4 -14
-11 -25 -16 -25 -6 0 -10 -6 -10 -14 0 -8 -16 -20 -35 -26 -19 -6 -35 -16 -35
-21 0 -5 -13 -9 -29 -9 -30 0 -50 -28 -36 -50 3 -6 -2 -13 -12 -17 -10 -3 -28
-15 -40 -26 -13 -11 -30 -17 -41 -15 -19 5 -19 3 -6 -51 7 -31 16 -63 19 -72
4 -11 -2 -23 -17 -33 -34 -24 -57 -20 -76 15 -22 42 -71 99 -84 99 -17 0 -37
-33 -38 -62 0 -18 -10 -35 -29 -49 -38 -28 -54 -118 -27 -148 21 -23 20 -30
-3 -55 -22 -24 -63 -124 -53 -130 4 -2 23 -9 43 -15 36 -12 59 -53 37 -67 -5
-3 -5 -11 1 -18 6 -7 9 -15 6 -18 -11 -11 25 -31 38 -21 6 5 33 8 59 5 52 -4
55 -8 130 -145 32 -59 35 -69 21 -74 -9 -4 -19 -1 -21 5 -5 17 -29 15 -36 -3
-3 -9 4 -21 19 -30 14 -8 36 -21 49 -29 24 -15 70 -11 60 5 -3 5 -2 9 3 10 46
4 123 43 144 73 4 5 12 5 18 2 6 -4 11 -2 11 3 0 6 7 11 15 11 8 0 15 4 15 9
0 19 57 30 84 16 14 -8 26 -11 26 -7 0 4 5 -1 11 -10 5 -10 18 -18 27 -18 10
0 23 -5 29 -11 8 -8 17 -6 33 8 19 18 89 19 104 2 14 -15 14 -48 2 -59 -13
-10 -13 -15 -1 -34 17 -26 6 -80 -27 -134 -24 -38 -18 -59 17 -68 28 -7 34
-24 8 -23 -27 1 -55 14 -53 24 1 5 -4 11 -11 14 -7 2 -9 -1 -4 -8 5 -9 -9 -12
-57 -10 -74 3 -121 -15 -126 -48 -2 -12 -12 -25 -23 -28 -10 -4 -19 -13 -19
-20 0 -17 46 -65 63 -66 7 0 -1 -5 -16 -11 -22 -8 -32 -7 -45 4 -9 8 -36 16
-59 17 -38 2 -43 -1 -49 -23 -8 -33 -1 -43 41 -50 21 -4 38 -14 42 -24 12 -38
37 -88 55 -112 14 -17 18 -33 14 -56 -6 -29 -5 -30 22 -26 24 3 31 -1 41 -26
11 -26 19 -31 67 -37 29 -3 53 -9 52 -13 -1 -4 2 -15 6 -24 5 -11 0 -34 -13
-60 -15 -32 -18 -51 -13 -72 l8 -29 34 30 c48 41 71 52 136 64 55 10 57 10
109 -25 36 -24 60 -49 75 -79 38 -75 64 -97 102 -86 18 5 34 9 35 9 2 0 3 159
3 354 l0 355 23 6 c12 4 92 29 179 57 l156 49 178 -121 c117 -79 182 -130 191
-148 7 -15 37 -54 67 -86 l54 -59 84 15 c64 12 104 14 168 7 70 -7 91 -6 122
7 l36 16 49 -49 c27 -27 55 -64 62 -81 11 -26 16 -30 31 -22 10 6 20 10 22 10
2 0 0 -37 -4 -81 -11 -98 -8 -109 31 -109 28 0 30 -3 41 -58 20 -105 17 -102
112 -95 83 6 83 5 98 -21 11 -22 12 -29 1 -35 -9 -6 -3 -14 22 -30 46 -28 56
-27 55 8 -1 22 9 40 35 66 21 21 35 41 32 46 -3 4 6 11 20 15 14 3 25 10 25
14 0 5 24 20 54 34 29 14 61 37 70 51 11 16 23 24 32 21 16 -6 57 30 61 53 1
8 7 17 13 21 7 4 11 9 10 11 -14 36 80 66 150 49 25 -6 55 -14 68 -17 12 -3
22 -9 22 -14 0 -5 10 -9 23 -9 13 0 32 -7 43 -15 28 -21 31 -19 31 23 0 72 16
93 84 112 22 7 36 3 61 -14 67 -45 170 -72 180 -47 4 12 169 16 278 8 139 -12
197 -27 222 -59 15 -21 30 -28 54 -28 23 0 38 -7 53 -27 27 -33 34 -26 23 23
-11 54 -5 71 26 79 25 6 26 7 9 20 -18 13 -18 14 2 24 11 6 26 10 33 9 7 -2
11 4 9 12 -2 8 -7 33 -12 55 -4 22 -16 60 -27 85 -22 50 -27 121 -12 150 11
20 -4 30 -45 30 -28 0 -41 15 -23 27 22 13 82 33 104 33 11 0 48 10 83 21 59
20 63 20 75 4 10 -13 20 -16 40 -11 16 4 34 2 42 -4 19 -17 34 -3 34 30 0 20
-6 31 -20 35 -23 7 -24 13 -9 52 6 15 15 44 20 63 4 19 21 73 38 120 17 46 31
92 31 102 0 23 0 23 56 -7 37 -20 62 -25 115 -25 55 0 69 -3 69 -15 0 -20 20
-18 50 5 14 11 32 20 41 20 31 0 41 41 31 119 -15 106 7 171 59 171 62 0 112
47 104 97 -7 38 5 49 55 52 28 1 25 20 -5 31 -14 5 -25 16 -25 24 0 9 -10 25
-22 36 -19 18 -20 22 -8 30 12 7 12 12 2 22 -10 10 -19 6 -45 -22 -29 -32 -67
-49 -67 -31 0 8 -12 11 -64 14 -28 2 -36 7 -47 35 -7 17 -17 32 -22 32 -4 0
-6 9 -2 20 6 18 -36 46 -82 54 -19 3 -23 10 -28 44 -9 73 -107 144 -156 114
-10 -7 -26 -12 -35 -12 -9 0 -22 -7 -28 -15 -10 -14 -37 -17 -128 -15 -30 1
-37 5 -42 26 -6 22 -11 25 -31 20 -23 -6 -24 -4 -19 24 5 23 3 30 -10 30 -9 0
-16 5 -16 10 0 6 -9 10 -20 10 -11 0 -20 -4 -20 -10 0 -5 -7 -10 -16 -10 -9 0
-14 -8 -13 -17 3 -34 -1 -41 -33 -54 -24 -10 -33 -10 -36 -1 -9 27 -94 196
-162 322 -111 205 -148 257 -235 324 -85 66 -125 122 -81 110 23 -6 45 23 37
50 -1 5 4 13 11 17 9 6 6 9 -10 9 -12 0 -25 -7 -28 -15 -4 -9 -19 -15 -35 -15
-16 0 -29 -4 -29 -10 0 -13 -78 -52 -90 -45 -6 4 -13 -2 -17 -12 -9 -26 -44
-53 -70 -53 -13 0 -23 -4 -23 -8 0 -5 -11 -15 -25 -22 -14 -7 -25 -22 -25 -32
0 -19 -16 -25 -22 -8 -7 23 -78 24 -94 1 -14 -19 -17 -20 -30 -6 -22 22 -1 88
26 80 12 -4 19 1 23 17 8 29 -6 43 -23 23 -19 -22 -67 -20 -75 5 -5 16 -15 20
-45 20 -34 0 -42 4 -55 30 -17 33 -46 42 -38 11 4 -15 0 -18 -21 -14 -19 4
-26 1 -26 -11 0 -19 -21 -21 -38 -4 -8 8 -15 8 -26 -1 -12 -10 -17 -9 -25 8
-14 26 -14 32 2 29 8 -2 11 7 9 25 -2 16 3 35 9 44 13 14 5 25 -25 36 -5 2 -9
19 -8 38 2 53 -27 101 -57 94 -13 -3 -30 -13 -38 -20 -19 -20 -21 -19 -64 11
-20 14 -51 26 -68 26 -18 1 -34 5 -37 10 -7 11 -34 10 -34 -2z"/>
</g>
</svg>